<?xml version="1.0" encoding="UTF-8"?>
<svg xmlns="http://www.w3.org/2000/svg" xmlns:xlink="http://www.w3.org/1999/xlink" width="30pt" height="30.000001pt" viewBox="0 0 30 30.000001" version="1.2">
<defs>
<clipPath id="clip1">
  <path d="M 16 0 L 24.363281 0 L 24.363281 12 L 16 12 Z M 16 0 "/>
</clipPath>
<clipPath id="clip2">
  <path d="M 18 14 L 23 14 L 23 29.019531 L 18 29.019531 Z M 18 14 "/>
</clipPath>
<clipPath id="clip3">
  <path d="M 7 14 L 12 14 L 12 29.019531 L 7 29.019531 Z M 7 14 "/>
</clipPath>
<clipPath id="clip4">
  <path d="M 5.492188 0 L 15 0 L 15 12 L 5.492188 12 Z M 5.492188 0 "/>
</clipPath>
</defs>
<g id="surface1">
<g clip-path="url(#clip1)" clip-rule="nonzero">
<path style=" stroke:none;fill-rule:nonzero;fill:rgb(100%,100%,100%);fill-opacity:1;" d="M 20.839844 11.535156 L 19.9375 11.535156 C 18.941406 11.535156 18.125 11.203125 17.515625 10.550781 C 16.308594 9.261719 16.414062 7.175781 16.421875 7.089844 L 16.417969 0.746094 C 16.417969 0.339844 16.746094 0.0117188 17.148438 0.0117188 C 17.546875 0.0117188 17.875 0.339844 17.875 0.746094 L 17.875 7.132812 C 17.871094 7.1875 17.800781 8.726562 18.578125 9.550781 C 18.90625 9.898438 19.351562 10.070312 19.9375 10.070312 L 20.839844 10.070312 C 21.425781 10.070312 21.871094 9.898438 22.203125 9.546875 C 22.972656 8.726562 22.90625 7.191406 22.90625 7.171875 L 22.902344 0.746094 C 22.902344 0.339844 23.230469 0.0117188 23.632812 0.0117188 C 24.03125 0.0117188 24.359375 0.339844 24.359375 0.746094 L 24.359375 7.128906 C 24.363281 7.175781 24.46875 9.261719 23.261719 10.550781 C 22.652344 11.203125 21.835938 11.535156 20.839844 11.535156 Z M 20.839844 11.535156 "/>
</g>
<path style=" stroke:none;fill-rule:nonzero;fill:rgb(100%,100%,100%);fill-opacity:1;" d="M 19.375 5.441406 C 18.972656 5.441406 18.644531 5.113281 18.644531 4.707031 L 18.644531 0.722656 C 18.644531 0.320312 18.972656 -0.0078125 19.375 -0.0078125 C 19.773438 -0.0078125 20.101562 0.320312 20.101562 0.722656 L 20.101562 4.707031 C 20.101562 5.113281 19.773438 5.441406 19.375 5.441406 Z M 19.375 5.441406 "/>
<path style=" stroke:none;fill-rule:nonzero;fill:rgb(100%,100%,100%);fill-opacity:1;" d="M 21.40625 5.441406 C 21.003906 5.441406 20.675781 5.113281 20.675781 4.707031 L 20.675781 0.722656 C 20.675781 0.320312 21.003906 -0.0078125 21.40625 -0.0078125 C 21.808594 -0.0078125 22.132812 0.320312 22.132812 0.722656 L 22.132812 4.707031 C 22.132812 5.113281 21.808594 5.441406 21.40625 5.441406 Z M 21.40625 5.441406 "/>
<g clip-path="url(#clip2)" clip-rule="nonzero">
<path style=" stroke:none;fill-rule:nonzero;fill:rgb(100%,100%,100%);fill-opacity:1;" d="M 20.597656 29.015625 L 20.179688 29.015625 C 19.238281 29.015625 18.476562 28.246094 18.476562 27.304688 L 18.476562 15.066406 C 18.476562 14.660156 18.800781 14.332031 19.203125 14.332031 L 21.574219 14.332031 C 21.972656 14.332031 22.300781 14.660156 22.300781 15.066406 L 22.300781 27.304688 C 22.300781 28.246094 21.535156 29.015625 20.597656 29.015625 Z M 19.933594 15.796875 L 19.933594 27.304688 C 19.933594 27.4375 20.042969 27.550781 20.179688 27.550781 L 20.597656 27.550781 C 20.734375 27.550781 20.84375 27.4375 20.84375 27.304688 L 20.84375 15.796875 Z M 19.933594 15.796875 "/>
</g>
<path style=" stroke:none;fill-rule:nonzero;fill:rgb(100%,100%,100%);fill-opacity:1;" d="M 20.390625 15.796875 C 19.988281 15.796875 19.660156 15.46875 19.660156 15.066406 L 19.660156 10.800781 C 19.660156 10.398438 19.988281 10.070312 20.390625 10.070312 C 20.789062 10.070312 21.117188 10.398438 21.117188 10.800781 L 21.117188 15.066406 C 21.117188 15.46875 20.789062 15.796875 20.390625 15.796875 Z M 20.390625 15.796875 "/>
<g clip-path="url(#clip3)" clip-rule="nonzero">
<path style=" stroke:none;fill-rule:nonzero;fill:rgb(100%,100%,100%);fill-opacity:1;" d="M 9.972656 29.015625 L 9.550781 29.015625 C 8.613281 29.015625 7.851562 28.246094 7.851562 27.304688 L 7.851562 15.066406 C 7.851562 14.660156 8.175781 14.332031 8.578125 14.332031 L 10.945312 14.332031 C 11.347656 14.332031 11.671875 14.660156 11.671875 15.066406 L 11.671875 27.304688 C 11.675781 28.246094 10.910156 29.015625 9.972656 29.015625 Z M 9.304688 15.796875 L 9.304688 27.304688 C 9.304688 27.4375 9.417969 27.550781 9.550781 27.550781 L 9.972656 27.550781 C 10.109375 27.550781 10.21875 27.4375 10.21875 27.304688 L 10.21875 15.796875 Z M 9.304688 15.796875 "/>
</g>
<path style=" stroke:none;fill-rule:nonzero;fill:rgb(100%,100%,100%);fill-opacity:1;" d="M 9.761719 15.796875 C 9.359375 15.796875 9.035156 15.46875 9.035156 15.066406 L 9.035156 10.800781 C 9.035156 10.398438 9.359375 10.070312 9.761719 10.070312 C 10.164062 10.070312 10.488281 10.398438 10.488281 10.800781 L 10.488281 15.066406 C 10.488281 15.46875 10.164062 15.796875 9.761719 15.796875 Z M 9.761719 15.796875 "/>
<g clip-path="url(#clip4)" clip-rule="nonzero">
<path style=" stroke:none;fill-rule:nonzero;fill:rgb(100%,100%,100%);fill-opacity:1;" d="M 9.761719 11.535156 C 7.40625 11.535156 5.492188 8.945312 5.492188 5.769531 C 5.492188 2.589844 7.40625 0.00390625 9.761719 0.00390625 C 12.117188 0.00390625 14.03125 2.589844 14.03125 5.769531 C 14.03125 8.945312 12.117188 11.535156 9.761719 11.535156 Z M 9.761719 1.46875 C 8.238281 1.46875 6.949219 3.4375 6.949219 5.769531 C 6.949219 8.101562 8.238281 10.070312 9.761719 10.070312 C 11.289062 10.070312 12.578125 8.097656 12.578125 5.769531 C 12.578125 3.4375 11.289062 1.46875 9.761719 1.46875 Z M 9.761719 1.46875 "/>
</g>
</g>
</svg>
