<?xml version="1.0" encoding="UTF-8"?>
<svg xmlns="http://www.w3.org/2000/svg" xmlns:xlink="http://www.w3.org/1999/xlink" width="150pt" height="149.999998pt" viewBox="0 0 150 149.999998" version="1.2">
<defs>
<clipPath id="clip1">
  <path d="M 76 62.226562 L 83.132812 62.226562 L 83.132812 73 L 76 73 Z M 76 62.226562 "/>
</clipPath>
<clipPath id="clip2">
  <path d="M 78 62.226562 L 80 62.226562 L 80 68 L 78 68 Z M 78 62.226562 "/>
</clipPath>
<clipPath id="clip3">
  <path d="M 79 62.226562 L 82 62.226562 L 82 68 L 79 68 Z M 79 62.226562 "/>
</clipPath>
<clipPath id="clip4">
  <path d="M 77 74 L 82 74 L 82 87.714844 L 77 87.714844 Z M 77 74 "/>
</clipPath>
<clipPath id="clip5">
  <path d="M 68 74 L 73 74 L 73 87.714844 L 68 87.714844 Z M 68 74 "/>
</clipPath>
<clipPath id="clip6">
  <path d="M 66.632812 62.226562 L 75 62.226562 L 75 73 L 66.632812 73 Z M 66.632812 62.226562 "/>
</clipPath>
</defs>
<g id="surface1">
<g clip-path="url(#clip1)" clip-rule="nonzero">
<path style=" stroke:none;fill-rule:nonzero;fill:rgb(100%,100%,100%);fill-opacity:1;" d="M 80.054688 72.355469 L 79.261719 72.355469 C 78.394531 72.355469 77.679688 72.066406 77.144531 71.492188 C 76.089844 70.359375 76.183594 68.527344 76.1875 68.449219 L 76.1875 62.878906 C 76.1875 62.523438 76.472656 62.234375 76.824219 62.234375 C 77.175781 62.234375 77.460938 62.523438 77.460938 62.878906 L 77.460938 68.488281 C 77.457031 68.539062 77.394531 69.890625 78.074219 70.613281 C 78.363281 70.921875 78.75 71.070312 79.261719 71.070312 L 80.054688 71.070312 C 80.566406 71.070312 80.957031 70.917969 81.246094 70.609375 C 81.917969 69.890625 81.859375 68.539062 81.859375 68.527344 L 81.855469 62.878906 C 81.855469 62.523438 82.140625 62.234375 82.492188 62.234375 C 82.84375 62.234375 83.128906 62.523438 83.128906 62.878906 L 83.128906 68.488281 C 83.132812 68.527344 83.226562 70.359375 82.171875 71.492188 C 81.636719 72.066406 80.925781 72.355469 80.054688 72.355469 Z M 80.054688 72.355469 "/>
</g>
<g clip-path="url(#clip2)" clip-rule="nonzero">
<path style=" stroke:none;fill-rule:nonzero;fill:rgb(100%,100%,100%);fill-opacity:1;" d="M 78.769531 67.003906 C 78.417969 67.003906 78.132812 66.714844 78.132812 66.359375 L 78.132812 62.859375 C 78.132812 62.503906 78.417969 62.214844 78.769531 62.214844 C 79.121094 62.214844 79.40625 62.503906 79.40625 62.859375 L 79.40625 66.359375 C 79.40625 66.714844 79.121094 67.003906 78.769531 67.003906 Z M 78.769531 67.003906 "/>
</g>
<g clip-path="url(#clip3)" clip-rule="nonzero">
<path style=" stroke:none;fill-rule:nonzero;fill:rgb(100%,100%,100%);fill-opacity:1;" d="M 80.546875 67.003906 C 80.195312 67.003906 79.910156 66.714844 79.910156 66.359375 L 79.910156 62.859375 C 79.910156 62.503906 80.195312 62.214844 80.546875 62.214844 C 80.898438 62.214844 81.183594 62.503906 81.183594 62.859375 L 81.183594 66.359375 C 81.183594 66.714844 80.898438 67.003906 80.546875 67.003906 Z M 80.546875 67.003906 "/>
</g>
<g clip-path="url(#clip4)" clip-rule="nonzero">
<path style=" stroke:none;fill-rule:nonzero;fill:rgb(100%,100%,100%);fill-opacity:1;" d="M 79.839844 87.714844 L 79.476562 87.714844 C 78.652344 87.714844 77.984375 87.039062 77.984375 86.210938 L 77.984375 75.457031 C 77.984375 75.101562 78.269531 74.816406 78.621094 74.816406 L 80.695312 74.816406 C 81.042969 74.816406 81.328125 75.101562 81.328125 75.457031 L 81.328125 86.210938 C 81.328125 87.039062 80.660156 87.714844 79.839844 87.714844 Z M 79.257812 76.101562 L 79.257812 86.210938 C 79.257812 86.328125 79.355469 86.425781 79.476562 86.425781 L 79.839844 86.425781 C 79.960938 86.425781 80.058594 86.328125 80.058594 86.210938 L 80.058594 76.101562 Z M 79.257812 76.101562 "/>
</g>
<path style=" stroke:none;fill-rule:nonzero;fill:rgb(100%,100%,100%);fill-opacity:1;" d="M 79.660156 76.101562 C 79.304688 76.101562 79.023438 75.8125 79.023438 75.457031 L 79.023438 71.714844 C 79.023438 71.359375 79.308594 71.070312 79.660156 71.070312 C 80.007812 71.070312 80.292969 71.359375 80.292969 71.714844 L 80.292969 75.457031 C 80.292969 75.8125 80.007812 76.101562 79.660156 76.101562 Z M 79.660156 76.101562 "/>
<g clip-path="url(#clip5)" clip-rule="nonzero">
<path style=" stroke:none;fill-rule:nonzero;fill:rgb(100%,100%,100%);fill-opacity:1;" d="M 70.550781 87.714844 L 70.183594 87.714844 C 69.363281 87.714844 68.695312 87.039062 68.695312 86.210938 L 68.695312 75.457031 C 68.695312 75.101562 68.980469 74.816406 69.332031 74.816406 L 71.402344 74.816406 C 71.753906 74.816406 72.039062 75.101562 72.039062 75.457031 L 72.039062 86.210938 C 72.039062 87.039062 71.371094 87.714844 70.550781 87.714844 Z M 69.96875 76.101562 L 69.96875 86.210938 C 69.96875 86.328125 70.066406 86.425781 70.183594 86.425781 L 70.550781 86.425781 C 70.667969 86.425781 70.765625 86.328125 70.765625 86.210938 L 70.765625 76.101562 Z M 69.96875 76.101562 "/>
</g>
<path style=" stroke:none;fill-rule:nonzero;fill:rgb(100%,100%,100%);fill-opacity:1;" d="M 70.367188 76.101562 C 70.015625 76.101562 69.730469 75.8125 69.730469 75.457031 L 69.730469 71.714844 C 69.730469 71.359375 70.015625 71.070312 70.367188 71.070312 C 70.71875 71.070312 71.003906 71.359375 71.003906 71.714844 L 71.003906 75.457031 C 71.003906 75.8125 70.71875 76.101562 70.367188 76.101562 Z M 70.367188 76.101562 "/>
<g clip-path="url(#clip6)" clip-rule="nonzero">
<path style=" stroke:none;fill-rule:nonzero;fill:rgb(100%,100%,100%);fill-opacity:1;" d="M 70.367188 72.355469 C 68.308594 72.355469 66.632812 70.082031 66.632812 67.289062 C 66.632812 64.496094 68.308594 62.226562 70.367188 62.226562 C 72.425781 62.226562 74.101562 64.496094 74.101562 67.289062 C 74.101562 70.082031 72.425781 72.355469 70.367188 72.355469 Z M 70.367188 63.511719 C 69.035156 63.511719 67.90625 65.242188 67.90625 67.289062 C 67.90625 69.339844 69.035156 71.070312 70.367188 71.070312 C 71.703125 71.070312 72.828125 69.339844 72.828125 67.289062 C 72.828125 65.242188 71.703125 63.511719 70.367188 63.511719 Z M 70.367188 63.511719 "/>
</g>
</g>
</svg>
