<?xml version="1.0" encoding="UTF-8"?>
<svg xmlns="http://www.w3.org/2000/svg" xmlns:xlink="http://www.w3.org/1999/xlink" width="375pt" height="374.999991pt" viewBox="0 0 375 374.999991" version="1.2">
<defs>
<clipPath id="clip1">
  <path d="M 191 109.9375 L 208.984375 109.9375 L 208.984375 136 L 191 136 Z M 191 109.9375 "/>
</clipPath>
<clipPath id="clip2">
  <path d="M 196 109.9375 L 200 109.9375 L 200 122 L 196 122 Z M 196 109.9375 "/>
</clipPath>
<clipPath id="clip3">
  <path d="M 200 109.9375 L 205 109.9375 L 205 122 L 200 122 Z M 200 109.9375 "/>
</clipPath>
<clipPath id="clip4">
  <path d="M 195 141 L 205 141 L 205 173.660156 L 195 173.660156 Z M 195 141 "/>
</clipPath>
<clipPath id="clip5">
  <path d="M 172 141 L 181 141 L 181 173.660156 L 172 173.660156 Z M 172 141 "/>
</clipPath>
<clipPath id="clip6">
  <path d="M 166.984375 109.9375 L 186 109.9375 L 186 136 L 166.984375 136 Z M 166.984375 109.9375 "/>
</clipPath>
</defs>
<g id="surface1">
<g clip-path="url(#clip1)" clip-rule="nonzero">
<path style=" stroke:none;fill-rule:nonzero;fill:rgb(100%,100%,100%);fill-opacity:1;" d="M 201.144531 135.261719 L 199.128906 135.261719 C 196.917969 135.261719 195.105469 134.539062 193.742188 133.101562 C 191.054688 130.269531 191.292969 125.691406 191.304688 125.496094 L 191.304688 111.5625 C 191.304688 110.671875 192.027344 109.953125 192.921875 109.953125 C 193.816406 109.953125 194.542969 110.671875 194.542969 111.5625 L 194.542969 125.589844 C 194.539062 125.714844 194.378906 129.09375 196.109375 130.90625 C 196.839844 131.671875 197.832031 132.046875 199.128906 132.046875 L 201.144531 132.046875 C 202.449219 132.046875 203.441406 131.667969 204.175781 130.894531 C 205.886719 129.09375 205.738281 125.71875 205.738281 125.683594 L 205.734375 111.5625 C 205.734375 110.671875 206.460938 109.953125 207.355469 109.953125 C 208.246094 109.953125 208.972656 110.671875 208.972656 111.5625 L 208.972656 125.589844 C 208.980469 125.6875 209.222656 130.269531 206.53125 133.101562 C 205.171875 134.539062 203.359375 135.261719 201.144531 135.261719 Z M 201.144531 135.261719 "/>
</g>
<g clip-path="url(#clip2)" clip-rule="nonzero">
<path style=" stroke:none;fill-rule:nonzero;fill:rgb(100%,100%,100%);fill-opacity:1;" d="M 197.878906 121.875 C 196.984375 121.875 196.257812 121.15625 196.257812 120.265625 L 196.257812 111.519531 C 196.257812 110.628906 196.984375 109.910156 197.878906 109.910156 C 198.773438 109.910156 199.496094 110.628906 199.496094 111.519531 L 199.496094 120.265625 C 199.496094 121.15625 198.773438 121.875 197.878906 121.875 Z M 197.878906 121.875 "/>
</g>
<g clip-path="url(#clip3)" clip-rule="nonzero">
<path style=" stroke:none;fill-rule:nonzero;fill:rgb(100%,100%,100%);fill-opacity:1;" d="M 202.398438 121.875 C 201.503906 121.875 200.777344 121.15625 200.777344 120.265625 L 200.777344 111.519531 C 200.777344 110.628906 201.503906 109.910156 202.398438 109.910156 C 203.292969 109.910156 204.019531 110.628906 204.019531 111.519531 L 204.019531 120.265625 C 204.019531 121.15625 203.292969 121.875 202.398438 121.875 Z M 202.398438 121.875 "/>
</g>
<g clip-path="url(#clip4)" clip-rule="nonzero">
<path style=" stroke:none;fill-rule:nonzero;fill:rgb(100%,100%,100%);fill-opacity:1;" d="M 200.601562 173.660156 L 199.671875 173.660156 C 197.582031 173.660156 195.882812 171.972656 195.882812 169.894531 L 195.882812 143.015625 C 195.882812 142.128906 196.609375 141.40625 197.5 141.40625 L 202.773438 141.40625 C 203.667969 141.40625 204.390625 142.128906 204.390625 143.015625 L 204.390625 169.898438 C 204.390625 171.972656 202.691406 173.660156 200.601562 173.660156 Z M 199.121094 144.625 L 199.121094 169.894531 C 199.121094 170.195312 199.367188 170.441406 199.671875 170.441406 L 200.601562 170.441406 C 200.90625 170.441406 201.152344 170.195312 201.152344 169.894531 L 201.152344 144.625 Z M 199.121094 144.625 "/>
</g>
<path style=" stroke:none;fill-rule:nonzero;fill:rgb(100%,100%,100%);fill-opacity:1;" d="M 200.136719 144.625 C 199.242188 144.625 198.519531 143.902344 198.519531 143.015625 L 198.519531 133.652344 C 198.519531 132.765625 199.242188 132.046875 200.136719 132.046875 C 201.03125 132.046875 201.757812 132.765625 201.757812 133.652344 L 201.757812 143.015625 C 201.757812 143.90625 201.03125 144.625 200.136719 144.625 Z M 200.136719 144.625 "/>
<g clip-path="url(#clip5)" clip-rule="nonzero">
<path style=" stroke:none;fill-rule:nonzero;fill:rgb(100%,100%,100%);fill-opacity:1;" d="M 176.953125 173.660156 L 176.019531 173.660156 C 173.933594 173.660156 172.234375 171.972656 172.234375 169.894531 L 172.234375 143.015625 C 172.234375 142.128906 172.957031 141.40625 173.851562 141.40625 L 179.121094 141.40625 C 180.015625 141.40625 180.742188 142.128906 180.742188 143.015625 L 180.742188 169.898438 C 180.742188 171.972656 179.042969 173.660156 176.953125 173.660156 Z M 175.472656 144.625 L 175.472656 169.894531 C 175.472656 170.195312 175.71875 170.441406 176.019531 170.441406 L 176.953125 170.441406 C 177.257812 170.441406 177.503906 170.195312 177.503906 169.894531 L 177.503906 144.625 Z M 175.472656 144.625 "/>
</g>
<path style=" stroke:none;fill-rule:nonzero;fill:rgb(100%,100%,100%);fill-opacity:1;" d="M 176.488281 144.625 C 175.59375 144.625 174.867188 143.902344 174.867188 143.015625 L 174.867188 133.652344 C 174.867188 132.765625 175.59375 132.046875 176.488281 132.046875 C 177.382812 132.046875 178.109375 132.765625 178.109375 133.652344 L 178.109375 143.015625 C 178.109375 143.90625 177.382812 144.625 176.488281 144.625 Z M 176.488281 144.625 "/>
<g clip-path="url(#clip6)" clip-rule="nonzero">
<path style=" stroke:none;fill-rule:nonzero;fill:rgb(100%,100%,100%);fill-opacity:1;" d="M 176.488281 135.261719 C 171.25 135.261719 166.984375 129.578125 166.984375 122.597656 C 166.984375 115.613281 171.25 109.933594 176.488281 109.933594 C 181.730469 109.933594 185.992188 115.613281 185.992188 122.597656 C 185.992188 129.578125 181.730469 135.261719 176.488281 135.261719 Z M 176.488281 113.148438 C 173.09375 113.148438 170.222656 117.476562 170.222656 122.597656 C 170.222656 127.71875 173.09375 132.046875 176.488281 132.046875 C 179.886719 132.046875 182.753906 127.71875 182.753906 122.597656 C 182.753906 117.476562 179.886719 113.148438 176.488281 113.148438 Z M 176.488281 113.148438 "/>
</g>
</g>
</svg>
